{"title":"Colombiana.2011.TS.LINE.XVID.AC3.Hive-CM8","uid":6636959,"size":1622692804,"categoryP":"video","categoryS":"movies","magnet":"?xt=urn:btih:4158bf18ed495a163f6993c181dd0c755b543308&amp;dn=Colombiana.2011.TS.LINE.XVID.AC3.Hive-CM8&amp;tr=udp%3A%2F%2Ftracker.openbittorrent.com%3A80&amp;tr=udp%3A%2F%2Fopen.demonii.com%3A1337&amp;tr=udp%3A%2F%2Ftracker.coppersurfer.tk%3A6969&amp;tr=udp%3A%2F%2Fexodus.desync.com%3A6969","seeders":0,"leechers":1,"uploader":"HeroMaster","files":-1,"time":1314600667,"description":"Colombiana.2011.TS.LINE.XVID.AC3.Hive-CM8\n\n\n[b]Thx Hive\n\nCM8 Doing It Right The First Time :D\n\nSources:\nVideo: Colombiana - Cam - 2011 - HP thx\nAudio: Great Line thx m8\n\nEncode:\nproudly presents first TS with line audio.\nwell,that was a load of work.\nThe Video itself was very nice, just needed cropping, fixing the aspect, fixing the resolution and fixing perspective.\nGot that great Line, cleaned it up and synced it back to my video, took me more than 6 hours, its a lot easier with R5 Video than with a cam.\nAnyway its completely lipsync, you know i can ;)\nenjoy\n\nVideo: 720x336 @bitrate 1800 2pass\nAudio: English AC3 2.0 Stereo\nSample: yes included[/b]\n\n &lt;a href=&quot;\nhttp://www.imdb.com/title/tt1657507/&quot; rel=&quot;nofollow&quot; target=&quot;_NEW&quot;&gt;\nhttp://www.imdb.com/title/tt1657507/&lt;/a&gt;\n\n\nGeneral\nFormat                           : AVI\nFormat/Info                      : Audio Video Interleave\nFile size                        : 1.50 GiB\nDuration                         : 1h 44mn\nOverall bit rate                 : 2 067 Kbps\nWriting application              : Nandub v1.0rc2\nWriting library                  : Nandub build 1853/release\n\nVideo\nID                               : 0\nFormat                           : MPEG-4 Visual\nFormat profile                   : Advanced Simple@L5\nFormat settings, BVOP            : 1\nFormat settings, QPel            : Yes\nFormat settings, GMC             : No warppoints\nFormat settings, Matrix          : Default (H.263)\nMuxing mode                      : Packed bitstream\nCodec ID                         : XVID\nCodec ID/Hint                    : XviD\nDuration                         : 1h 44mn\nBit rate                         : 1 799 Kbps\nWidth                            : 720 pixels\nHeight                           : 336 pixels\nDisplay aspect ratio             : 2.2:1\nFrame rate                       : 29.970 fps\nColor space                      : YUV\nChroma subsampling               : 4:2:0\nBit depth                        : 8 bits\nScan type                        : Progressive\nCompression mode                 : Lossy\nBits/(Pixel*Frame)               : 0.248\nStream size                      : 1.31 GiB (87%)\nWriting library                  : XviD 1.2.1 (UTC 2008-12-04)\n\nAudio\nID                               : 1\nFormat                           : AC-3\nFormat/Info                      : Audio Coding 3\nMode extension                   : CM (complete main)\nCodec ID                         : 2000\nDuration                         : 1h 44mn\nBit rate mode                    : Constant\nBit rate                         : 256 Kbps\nChannel(s)                       : 2 channels\nChannel positions                : Front: L R\nSampling rate                    : 48.0 KHz\nBit depth                        : 16 bits\nCompression mode                 : Lossy\nStream size                      : 190 MiB (12%)\nAlignment                        : Split accross interleaves\nInterleave, duration             : 33 ms (1.00 video frame)\nInterleave, preload duration     : 500 ms\n\n\nCast:\n\nZoe Saldana\t... \tCataleya Restrepo\nAmandla Stenberg\t... \tYoung Cataleya Restrepo\nMichael Vartan\t... \tDanny Delanay\nCliff Curtis\t... \tEmilio Restrepo\nCallum Blue\t... \tRichard\n\n\nPlot:\n\nA young woman grows up to be a stone-cold assassin after witnessing her parents' murder as a child in Bogota. She works for her uncle as a hitman by day, but her personal time is spent engaging in vigilante murders that she hopes will lead her to her ultimate target - the mobster responsible for her parents' death.\n\n\nScreens:\n\n &lt;a href=&quot;\nhttp://img835.imageshack.us/img835/2729/54606117.png&quot; rel=&quot;nofollow&quot; target=&quot;_NEW&quot;&gt;\nhttp://img835.imageshack.us/img835/2729/54606117.png&lt;/a&gt;\n &lt;a href=&quot;\nhttp://img155.imageshack.us/img155/8175/cocobf.png&quot; rel=&quot;nofollow&quot; target=&quot;_NEW&quot;&gt;\nhttp://img155.imageshack.us/img155/8175/cocobf.png&lt;/a&gt;\n &lt;a href=&quot;\nhttp://img30.imageshack.us/img30/9292/cococo.png&quot; rel=&quot;nofollow&quot; target=&quot;_NEW&quot;&gt;\nhttp://img30.imageshack.us/img30/9292/cococo.png&lt;/a&gt;\n\n\ncovers:\n &lt;a href=&quot;\nhttp://img714.imageshack.us/img714/6128/colombianacover.jpg&quot; rel=&quot;nofollow&quot; target=&quot;_NEW&quot;&gt;\nhttp://img714.imageshack.us/img714/6128/colombianacover.jpg&lt;/a&gt;\n &lt;a href=&quot;\nhttp://img820.imageshack.us/img820/1184/collabel.jpg&quot; rel=&quot;nofollow&quot; target=&quot;_NEW&quot;&gt;\nhttp://img820.imageshack.us/img820/1184/collabel.jpg&lt;/a&gt;\n\n\nGreetz:\n\nViSiON,SiC,SANTi,3LT0N,YanKeeS,MAGNET,THC,T0XiC,LKRG,FANTASIA-PLAY,FANTASIA-M,BHRG,IMAGiNE,WBZ,FLAWL3SS,NOVA,D2U,Vik,Rapeseed,SAFC,goldadvance,MEMORY100,\nscumbag,Hero5,KaN1vE,Unevano,Pinnz,Wayne,cedrict wink,Mr Hive and all P2P groups\nGreat Work Guys :D\n\nFYS\n\nLOOKING FOR ANYTHING YOU WANT TO LOOK AND SOUND BETTER\n\n&lt;a class=&quot;__cf_email__&quot; href=&quot;/cdn-cgi/l/email-protection&quot; data-cfemail=&quot;51121c6911392422393c30383d7f323e3c&quot;&gt;[email&amp;#160;protected]&lt;/a&gt;&lt;script cf-hash='f9e31' type=&quot;text/javascript&quot;&gt;\n/* &lt;![CDATA[ */!function(){try{var t=&quot;currentScript&quot;in document?document.currentScript:function(){for(var t=document.getElementsByTagName(&quot;script&quot;),e=t.length;e--;)if(t[e].getAttribute(&quot;cf-hash&quot;))return t[e]}();if(t&amp;&amp;t.previousSibling){var e,r,n,i,c=t.previousSibling,a=c.getAttribute(&quot;data-cfemail&quot;);if(a){for(e=&quot;&quot;,r=parseInt(a.substr(0,2),16),n=2;a.length-n;n+=2)i=parseInt(a.substr(n,2),16)^r,e+=String.fromCharCode(i);e=document.createTextNode(e),c.parentNode.replaceChild(e,c)}}}catch(u){}}();/* ]]&gt; */&lt;/script&gt;\t\t\n\n\nENJOY!","torrent":{"xt":"urn:btih:4158bf18ed495a163f6993c181dd0c755b543308","amp;dn":"Colombiana.2011.TS.LINE.XVID.AC3.Hive-CM8","amp;tr":["udp%3A%2F%2Ftracker.openbittorrent.com%3A80","udp%3A%2F%2Fopen.demonii.com%3A1337","udp%3A%2F%2Ftracker.coppersurfer.tk%3A6969","udp%3A%2F%2Fexodus.desync.com%3A6969"],"infoHash":"4158bf18ed495a163f6993c181dd0c755b543308","infoHashBuffer":{"type":"Buffer","data":[65,88,191,24,237,73,90,22,63,105,147,193,129,221,12,117,91,84,51,8]},"announce":[],"urlList":[]}}